<svg xmlns="http://www.w3.org/2000/svg" version="1.1" width="1920" height="220" viewBox="60 432 1740 220">
<defs>
<clipPath id="clip_1">
<path transform="matrix(1,0,0,-1,0,1080)" d="M0 1080H1920V0H0Z"/>
</clipPath>
</defs>
<g fill="#ffffff">
<g>





















































































































































































<path transform="matrix(1,0,0,-1,218.5225,503.5713)" d="M0 0 15.524 30.986H352.683V0Z" fill="#ff2920"/>
<path transform="matrix(1,0,0,-1,573.5303,470.26069)" d="M0 0H-4.649-338.048-340.919L-342.205-2.567-355.399-28.903-358.772-35.635H-351.243-4.649 0V-30.986-4.649ZM-4.649-4.649V-30.986H-351.243L-338.048-4.649Z"/>

<path transform="matrix(1,0,0,-1,920.123,470.26069)" d="M0 0H-4.649-351.242-355.892V-4.649-30.986-35.635H-351.242-4.649 0V-30.986-4.649ZM-4.649-30.986H-351.24198V-4.6499998H-4.649Z"/>
<path transform="matrix(1,0,0,-1,913.1484,503.5713)" d="M0 0V30.986H372.036L356.512 0Z" fill="#483cb7"/>
<path transform="matrix(1,0,0,-1,1288.9502,470.26069)" d="M0 0H-7.53-373.477-378.126V-4.649-30.986-35.635H-373.477-20.726-17.854L-16.568-33.069-3.373-6.732ZM-7.53-4.649-20.726-30.986H-373.477V-4.649Z"/>
<g clip-path="url(#clip_1)">
<path transform="matrix(1,0,0,-1,448.627,558.8789)" d="M0 0-17.992-36.729H-72.127L-54.137 0C-52.591 3.044-50.211 4.567-46.999 4.567H-43.708-2.495C.712 4.567 1.546 3.044 0 0M42.255 27.683C39.043 33.469 33.005 36.363 24.142 36.363H-28.052-51.958-198.566C-206.788 36.363-214.843 33.59-222.727 28.049-230.613 22.504-236.743 15.286-241.114 6.396L-282.381-77.66C-284.782-82.534-285.026-86.677-283.122-90.085-281.219-93.497-277.697-95.202-272.558-95.202H-184.515C-168.59-95.202-155.691-85.214-145.819-65.234L-120.634-13.888H-186.522L-199.633-40.384H-171.12L-181.277-61.032C-181.99-62.616-183.307-63.407-185.234-63.407H-236.096C-237.125-63.407-237.422-62.921-236.993-61.946L-205.466 2.193C-204.625 3.774-203.372 4.567-201.7 4.567H-89.624L-138.664-95.202H-100.902L-85.248-63.407H-31.111L-46.768-95.202H-9.006L40.934 6.396C45.024 14.801 45.468 21.896 42.255 27.683"/>
<path transform="matrix(1,0,0,-1,536.8652,580.623)" d="M0 0 12.911 26.312H62.809C64.476 26.312 64.893 25.519 64.053 23.937L53.472 2.375C52.757 .79 51.566 0 49.897 0ZM71.977-21.471C79.877-15.564 85.869-8.528 89.956-.366L103.926 28.141C108.015 36.423 108.454 43.489 105.243 49.336 102.033 55.184 95.998 58.107 87.137 58.107H-9.193L-73.936-73.458H-36.176L-15.012-30.333H3.291L14.493-73.458H57.84L42.979-30.333H43.747C54.664-30.333 64.073-27.382 71.977-21.471"/>
<path transform="matrix(1,0,0,-1,751.4775,558.8789)" d="M0 0-17.994-36.729H-72.129L-54.137 0C-52.592 3.044-50.212 4.567-47.001 4.567H-2.496C.711 4.567 1.545 3.044 0 0M42.253 27.683C39.042 33.469 33.004 36.363 24.141 36.363H-51.959C-66.6 36.363-78.858 26.372-88.727 6.396L-138.666-95.202H-100.903L-85.248-63.407H-31.111L-46.77-95.202H-9.007L40.932 6.396C45.023 14.801 45.467 21.896 42.253 27.683"/>
<path transform="matrix(1,0,0,-1,1050.1338,601.6377)" d="M0 0 13.117 26.679H-56.045L-45.89 47.326H31.943L47.602 79.122H-48.522-67.994-193.217C-201.438 79.122-209.494 76.349-217.378 70.808-225.265 65.263-231.394 58.045-235.767 49.155L-277.031-34.901C-279.433-39.775-279.678-43.918-277.773-47.326-275.87-50.738-272.349-52.443-267.209-52.443H-179.166C-163.241-52.443-150.343-42.455-140.471-22.476L-115.286 28.871H-181.175L-194.284 2.375H-165.771L-175.928-18.273C-176.643-19.857-177.957-20.648-179.885-20.648H-230.745C-231.775-20.648-232.073-20.162-231.646-19.187L-200.117 44.952C-199.277 46.533-198.023 47.326-196.352 47.326H-83.641L-132.736-52.443H-17.144L-1.486-20.648H-79.318L-69.163 0Z"/>
<path transform="matrix(1,0,0,-1,1229.125,522.5156)" d="M0 0-76.975-76.747-81.878 0H-113.861L-178.604-131.565H-140.844L-115.232-79.305-111.704-117.313H-82.034L-40.858-79.122-66.67-131.565H-28.91L35.834 0Z"/>
<path transform="matrix(1,0,0,-1,1744.7334,516.3774)" d="M0 0-29.383-59.705H-73.939L-78.73-69.29-107.417-125.574C-110.719-132.332-117.701-136.695-125.225-136.695H-185.461L-148.707-63.676-146.742-59.705H-218.997L-189.614 0H-117.406L-99.542 35.412H-318.433C-338.339 35.412-350.606 27.902-359.456 10.298-360.667 7.844-362.469 4.122-364.428 0H-215.15L-249.726-67.205-271.157-106.09C-282.415-124.39-302.749-135.653-325.548-136.216-347.564-136.759-371.478-137.012-400.804-137.012-417.209-137.012-433.499-136.94-450.745-136.862L-450.991-136.861C-463.353-136.804-478.735-136.734-493.7-136.712L-503.531-136.699-497.63-124.083C-493.068-114.301-488.759-105.063-483.617-96.375L-482.326-94.831C-479.554-92.429-473.71-91.286-469.453-91.239-450.205-91.025-430.897-90.998-416.227-90.998-408.802-90.998-401.417-91.005-394.107-91.013-386.623-91.022-379.141-91.029-371.657-91.029L-365.924-91.027C-341.268-91.012-326.952-85.961-317.635-58.592H-465.319L-410.338 54.739C-398.831 77.854-379.944 89.544-354.174 89.544L-353.754 89.543C-322.597 89.397-288.74 89.321-247.217 89.304L-237.082 89.3-237.104 89.257H-173.812L-173.793 89.3H-169.786C-144.386 89.302-117.334 89.321-92.171 89.34L-91.275 89.341C-65.995 89.36-41.007 89.379-16.65 89.379H-16.228C-14.486 89.379-12.379 89.409-10.187 89.444L.861 89.606-44.245 0ZM11.027 96.031H-354.174C-382.519 96.031-403.302 82.929-415.975 57.469L-475.857-64.856H-326.883C-334.885-81.649-346.156-84.752-365.925-84.763L-371.657-84.765C-379.138-84.765-386.619-84.758-394.101-84.75L-395.932-84.748C-402.645-84.741-409.419-84.734-416.227-84.734-430.909-84.734-450.236-84.761-469.522-84.975-471.381-84.996-480.934-85.338-486.425-90.093L-489.007-93.185C-494.308-102.141-498.679-111.512-503.304-121.428L-513.37-142.949-493.709-142.976C-478.967-142.998-463.763-143.067-451.546-143.123L-450.773-143.125C-434.382-143.2-417.433-143.276-400.804-143.276-371.432-143.276-347.47-143.022-325.394-142.478-300.466-141.863-277.855-129.692-265.823-109.372-256.693-93.954-248.407-78.694-241.38-64.856L-204.926 6.264H-354.459C-354.249 6.694-354.048 7.103-353.859 7.485-346.874 21.381-337.825 27.847-323.337 28.969H-295.336C-286.687 28.915-277.656 28.872-268.098 28.84L-260.327 28.814-260.249 28.969H-208.532L-208.603 28.816-189.067 28.787C-181.898 28.776-174.707 28.772-167.555 28.772-147.512 28.772-127.132 28.808-109.563 28.848L-121.325 6.264H-193.513L-229.061-65.968H-156.873L-195.627-142.958H-125.225C-115.35-142.958-106.166-137.235-101.813-128.372L-73.128-72.09-70.067-65.968H-25.484L10.063 6.264H-34.158Z"/>
<path transform="matrix(1,0,0,-1,1519.3574,522.6411)" d="M0 0H-148.91C-145.637 7.076-141.892 14.886-139.675 19.375-129.633 39.355-115.011 47.985-92.209 47.76H27.902L47.262 89.257H-21.867L-21.844 89.304C-63.339 89.321-97.403 89.398-128.417 89.543-128.543 89.544-128.673 89.544-128.798 89.544-152.323 89.544-168.85 79.313-179.324 58.272L-229.782-45.897H-229.299L-229.404-46.065H-83.584L-86.02-53.424C-96.472-85.013-113.817-91.011-140.545-91.027-149.938-91.032-159.34-91.024-168.738-91.013-193.414-90.987-218.933-90.96-244.008-91.238-245.471-91.254-246.915-91.424-248.206-91.673-250.938-92.2-253.267-93.961-254.629-96.388-258.863-103.929-262.625-111.993-266.578-120.466-267.15-121.692-267.729-122.932-268.315-124.185-253.894-124.206-239.544-124.27-225.587-124.333-182.458-124.527-141.719-124.712-100.327-123.691-79.655-123.18-61.259-113.032-51.116-96.544-41.266-80.532-32.612-63.73-23.706-46.065Z" fill="#ff2920"/>
<path transform="matrix(1,0,0,-1,1734.6699,522.6411)" d="M0 0H-44.268L.759 89.445C-1.47 89.41-3.612 89.379-5.382 89.379H-5.805C-30.447 89.379-56.519 89.36-82.103 89.34-107.268 89.321-134.321 89.302-159.723 89.3L-178.985 47.578C-148.053 47.532-116.769 47.598-89.489 47.665L-79.458 47.687-103.423 0H-175.651L-198.87-47.177H-126.594L-133.049-60.229-165.232-124.167H-115.161C-109.999-124.167-105.21-121.165-102.961-116.518L-74.271-60.225-67.748-47.177H-23.219Z" fill="#483cb7"/>
</g>
</g>
</g>
</svg>
