<svg xmlns="http://www.w3.org/2000/svg" viewBox="0 0 740 502" preserveAspectRatio="xMidYMid meet" aria-label="AC Vitha Clinic">
  <g transform="translate(0,502) scale(0.1,-0.1)" fill="#ffffff" stroke="none">
    <path d="M5596 3296 c27 -27 34 -42 34 -72 0 -86 -71 -139 -152 -115 -53 16 -81 60 -75 121 7 62 49 100 113 100 39 0 51 -5 80 -34z m-4038 -38 c-3 -7 -13 -15 -24 -17 -28 -5 -44 -21 -44 -45 0 -22 341 -826 350 -826 5 0 297 708 321 778 16 48 5 80 -33 90 -17 4 -33 13 -36 20 -3 9 24 12 102 12 83 0 106 -3 106 -14 0 -7 -13 -16 -30 -19 -16 -4 -37 -18 -46 -32 -9 -14 -95 -216 -190 -448 -216 -523 -205 -498 -221 -495 -8 2 -99 200 -208 453 -106 248 -203 465 -214 483 -14 20 -33 35 -51 39 -17 3 -30 12 -30 19 0 11 26 14 126 14 96 0 125 -3 122 -12z m1042 -3 c0 -8 -8 -15 -17 -15 -9 0 -25 -7 -35 -17 -17 -15 -18 -43 -18 -456 0 -396 2 -442 17 -459 9 -10 24 -18 35 -18 10 0 18 -7 18 -15 0 -12 -19 -15 -115 -15 -96 0 -115 3 -115 15 0 8 7 15 15 15 8 0 24 9 35 20 19 19 20 33 20 453 0 375 -2 435 -16 455 -8 12 -24 22 -35 22 -10 0 -19 7 -19 15 0 12 19 15 115 15 96 0 115 -3 115 -15z m994 7 c3 -5 8 -43 12 -85 8 -93 -5 -101 -51 -29 -22 34 -45 55 -84 75 -50 25 -64 27 -168 27 l-113 0 0 -458 c0 -398 2 -460 16 -480 8 -12 24 -22 35 -22 10 0 19 -7 19 -15 0 -12 -19 -15 -115 -15 -96 0 -115 3 -115 15 0 8 7 15 15 15 8 0 24 9 35 20 19 19 20 33 20 480 l0 460 -113 0 c-104 0 -118 -2 -168 -27 -39 -20 -62 -41 -84 -75 -46 -72 -59 -64 -50 30 4 42 9 80 12 85 6 10 891 9 897 -1z m296 -7 c0 -8 -9 -15 -19 -15 -46 0 -51 -29 -51 -278 0 -219 1 -234 18 -227 96 42 130 49 242 48 118 -1 233 -24 359 -72 l51 -19 0 252 c0 211 -2 255 -16 274 -8 12 -24 22 -35 22 -10 0 -19 7 -19 15 0 12 19 15 115 15 96 0 115 -3 115 -15 0 -8 -8 -15 -18 -15 -11 0 -26 -8 -36 -18 -15 -17 -16 -49 -14 -293 l3 -274 135 -47 c74 -26 141 -46 149 -45 9 1 75 143 165 352 95 221 157 351 166 353 12 2 62 -111 205 -460 192 -469 217 -518 264 -518 12 0 21 -6 21 -15 0 -12 -18 -15 -105 -15 -87 0 -105 3 -105 15 0 9 9 15 24 15 30 0 49 23 49 58 0 15 -73 206 -163 425 -154 377 -164 397 -175 370 -7 -15 -67 -155 -134 -311 -68 -156 -120 -287 -116 -290 4 -4 41 -7 83 -6 99 1 159 27 223 96 45 49 69 56 69 21 0 -23 -69 -86 -126 -114 -43 -21 -62 -24 -159 -23 l-111 1 -32 -76 c-18 -42 -32 -91 -32 -109 0 -28 4 -33 30 -38 17 -4 30 -13 30 -20 0 -11 -25 -14 -120 -14 -100 0 -120 3 -120 15 0 8 6 15 14 15 34 0 73 52 115 150 24 55 42 102 40 103 -5 3 -247 87 -271 94 -17 5 -18 -7 -18 -153 0 -132 3 -160 17 -176 9 -10 24 -18 35 -18 10 0 18 -7 18 -15 0 -12 -19 -15 -115 -15 -96 0 -115 3 -115 15 0 8 9 15 19 15 43 0 51 33 51 217 l0 172 -84 26 c-243 74 -447 73 -555 -4 l-31 -22 0 -175 c0 -161 2 -176 20 -194 11 -11 27 -20 35 -20 8 0 15 -7 15 -15 0 -12 -19 -15 -115 -15 -96 0 -115 3 -115 15 0 8 8 15 18 15 11 0 27 9 38 21 18 20 19 44 22 430 3 455 0 486 -48 496 -17 3 -30 12 -30 19 0 11 24 14 115 14 96 0 115 -3 115 -15z m-941 -1636 c48 -17 38 -31 -17 -23 -38 5 -52 2 -65 -11 -44 -44 5 -110 65 -87 36 13 54 6 37 -14 -16 -19 -89 -18 -117 2 -51 35 -44 105 12 130 38 16 45 17 85 3z m199 -62 l3 -67 44 0 c25 0 45 -4 45 -10 0 -6 -28 -10 -65 -10 l-65 0 0 73 c0 41 3 77 7 81 17 17 28 -6 31 -67z m250 -10 c2 -64 0 -77 -13 -77 -12 0 -15 15 -15 81 0 60 3 80 13 77 8 -3 13 -31 15 -81z m220 29 l51 -54 3 51 c2 29 8 52 16 55 9 3 12 -17 12 -77 0 -99 -9 -103 -74 -28 l-46 52 0 -52 c0 -40 -4 -53 -15 -53 -12 0 -15 16 -15 80 0 44 4 80 9 80 4 0 31 -24 59 -54z m262 -26 c0 -64 -3 -80 -15 -80 -12 0 -15 15 -15 73 0 41 3 77 7 80 17 18 23 0 23 -73z m293 61 c5 -5 6 -15 2 -21 -5 -8 -10 -9 -18 -1 -18 18 -72 13 -91 -8 -41 -45 13 -107 74 -84 20 7 32 8 36 1 10 -16 -17 -28 -64 -28 -52 0 -92 33 -92 78 0 30 31 66 65 75 25 7 77 -1 88 -12z"/>
    <path d="M5485 3309 c-102 -28 -77 -189 30 -189 107 0 133 160 30 189 -16 4 -43 4 -60 0z m58 -28 c32 -12 41 -38 23 -66 -13 -20 -13 -25 0 -44 12 -16 12 -21 2 -21 -7 0 -19 9 -26 20 -7 11 -21 20 -32 20 -13 0 -20 -7 -20 -20 0 -11 -4 -20 -10 -20 -6 0 -10 30 -10 70 0 68 1 70 24 70 14 0 36 -4 49 -9z"/>
    <path d="M5490 3240 c0 -30 11 -37 44 -24 24 9 19 41 -6 48 -36 9 -38 8 -38 -24z"/>
  </g>
</svg>
